<svg width="20" height="20" viewBox="0 0 20 20" fill="none" xmlns="http://www.w3.org/2000/svg">
<path d="M7.43683 6.47161C7.17123 6.20601 6.74061 6.20601 6.47501 6.47161C6.20942 6.73721 6.20942 7.16782 6.47501 7.43342L6.79326 7.75167C7.05886 8.01727 7.48948 8.01727 7.75508 7.75167C8.02067 7.48607 8.02067 7.05546 7.75508 6.78986L7.43683 6.47161Z" fill="#AAADC3" stroke="#AAADC3" stroke-width="0.1"/>
<path d="M14.8709 15.8308L14.8708 15.8308C14.7435 15.7029 14.672 15.5298 14.672 15.3494C14.672 15.169 14.7435 14.9959 14.8708 14.868C14.9339 14.8039 15.0091 14.753 15.0921 14.7182C15.1751 14.6833 15.2643 14.6654 15.3543 14.6654C15.4444 14.6654 15.5336 14.6833 15.6166 14.7182C15.6996 14.753 15.7748 14.8039 15.8379 14.8681C15.8379 14.8681 15.838 14.8682 15.8381 14.8683L18.8523 17.8905L18.8524 17.8906C18.9469 17.9857 19.0111 18.1066 19.0371 18.2381C19.0631 18.3696 19.0496 18.5059 18.9984 18.6297C18.9472 18.7536 18.8605 18.8596 18.7493 18.9344C18.638 19.0091 18.5071 19.0494 18.3731 19.05L18.3728 19.05L1.6301 19.05C1.44973 19.05 1.27674 18.9783 1.1492 18.8508C1.02165 18.7233 0.95 18.5503 0.95 18.3699V1.62716V1.62693L0.950001 1.62693C0.950627 1.49288 0.990853 1.362 1.06563 1.25074C1.1404 1.13949 1.24638 1.0528 1.37026 1.00159C1.49415 0.950378 1.6304 0.936915 1.76191 0.962896C1.89342 0.988876 2.01431 1.05314 2.10941 1.14762L2.10952 1.14772L5.6601 4.6963L5.66018 4.69638C5.78751 4.82422 5.859 4.99731 5.859 5.17774C5.859 5.35817 5.78752 5.53125 5.66019 5.65909C5.66018 5.6591 5.66018 5.6591 5.66018 5.6591L14.8709 15.8308ZM14.8709 15.8308L15.7409 16.7009L14.8709 15.8308ZM15.8986 16.9977C15.8765 16.8854 15.8217 16.7822 15.7411 16.701L15.8986 16.9977ZM15.8986 16.9977C15.9207 17.1101 15.909 17.2264 15.8651 17.3322M15.8986 16.9977L15.8651 17.3322M15.8651 17.3322C15.8212 17.4379 15.747 17.5283 15.6518 17.5919M15.8651 17.3322L15.6518 17.5919M15.6518 17.5919C15.5566 17.6556 15.4448 17.6896 15.3303 17.6898M15.6518 17.5919L15.3303 17.6898M15.3303 17.6898H2.88847C2.73525 17.6893 2.58845 17.6282 2.48011 17.5199C2.37179 17.4116 2.31071 17.2648 2.31021 17.1116V4.66973M15.3303 17.6898L2.31021 4.66973M2.31021 4.66973C2.31038 4.55524 2.34443 4.44335 2.40807 4.34817C2.47171 4.25299 2.56209 4.17877 2.66783 4.13486C2.77357 4.09095 2.88994 4.07931 3.00228 4.10141C3.11461 4.12351 3.21789 4.17835 3.29911 4.25902M2.31021 4.66973L3.29911 4.25902M3.29911 4.25902C3.29912 4.25903 3.29913 4.25904 3.29914 4.25906L4.69918 5.65909C4.6992 5.65911 4.69922 5.65913 4.69924 5.65915L3.29911 4.25902Z" fill="#AAADC3" stroke="#AAADC3" stroke-width="0.1"/>
<path d="M11.6329 10.67C11.3673 10.4044 10.9367 10.4044 10.6711 10.67C10.4055 10.9356 10.4055 11.3662 10.6711 11.6318L10.9894 11.9501C11.255 12.2157 11.6856 12.2157 11.9512 11.9501C12.2168 11.6845 12.2168 11.2539 11.9512 10.9883L11.6329 10.67Z" fill="#AAADC3" stroke="#AAADC3" stroke-width="0.1"/>
<path d="M9.53558 8.57079C9.26998 8.30519 8.83937 8.30519 8.57377 8.57079C8.30817 8.83639 8.30817 9.26701 8.57377 9.5326L8.89202 9.85085C9.15762 10.1164 9.58823 10.1164 9.85383 9.85085C10.1194 9.58526 10.1194 9.15464 9.85383 8.88904L9.53558 8.57079Z" fill="#AAADC3" stroke="#AAADC3" stroke-width="0.1"/>
<path d="M13.733 12.7674C13.4674 12.5018 13.0368 12.5018 12.7712 12.7674C12.5056 13.033 12.5056 13.4636 12.7712 13.7292L13.0895 14.0474C13.3551 14.313 13.7857 14.313 14.0513 14.0474C14.3169 13.7818 14.3169 13.3512 14.0513 13.0856L13.733 12.7674Z" fill="#AAADC3" stroke="#AAADC3" stroke-width="0.1"/>
</svg>
