<svg width="22" height="17" viewBox="0 0 22 17" fill="none" xmlns="http://www.w3.org/2000/svg">
<path d="M20.3023 8.34186H20.1698V3.09302C20.1698 1.88431 19.1855 0.9 17.9767 0.9C17.0504 0.9 16.264 1.48279 15.9446 2.29535H15.6512C15.2099 2.29535 14.8535 2.65175 14.8535 3.09302C14.8535 3.5343 15.2099 3.8907 15.6512 3.8907H17.5116C17.9529 3.8907 18.3093 3.5343 18.3093 3.09302C18.3093 2.8557 18.2044 2.64417 18.0399 2.49862C18.3409 2.53002 18.5744 2.78353 18.5744 3.09302V8.34186H18.4419H16.5814H3.55814H1.69767C1.2564 8.34186 0.9 8.69826 0.9 9.13953C0.9 9.58081 1.2564 9.93721 1.69767 9.93721H2.76047V11C2.76047 12.4937 3.4888 13.8163 4.604 14.636L4.1572 15.0828C3.84416 15.3958 3.84319 15.9012 4.1575 16.2105C4.31174 16.3646 4.51871 16.4442 4.72093 16.4442C4.92329 16.4442 5.13039 16.3645 5.28466 16.2102L6.13231 15.3626C6.49915 15.4579 6.88017 15.514 7.27907 15.514H14.7209C15.1198 15.514 15.5008 15.4579 15.8677 15.3626L16.7153 16.2102C16.8696 16.3645 17.0767 16.4442 17.2791 16.4442C17.4814 16.4442 17.6885 16.3645 17.8428 16.2102C18.1558 15.8972 18.1568 15.3918 17.8426 15.0825C17.8424 15.0824 17.8423 15.0823 17.8422 15.0822L17.3959 14.6359C18.5154 13.812 19.2395 12.4893 19.2395 11V9.93721H19.3721H20.3023C20.7436 9.93721 21.1 9.58081 21.1 9.13953C21.1 8.69826 20.7436 8.34186 20.3023 8.34186ZM17.6442 11C17.6442 12.6099 16.3308 13.9233 14.7209 13.9233H7.27907C5.66918 13.9233 4.35581 12.6099 4.35581 11V9.93721H16.5814H17.6442V11Z" fill="#AAADC3" stroke="#AAADC3" stroke-width="0.2"/>
</svg>
