<svg width="20" height="17" viewBox="0 0 20 17" fill="none" xmlns="http://www.w3.org/2000/svg">
<path d="M17 9H18.7C19.16 9 19.38 8.43 19.03 8.13L10.67 0.600001C10.29 0.260001 9.71001 0.260001 9.33001 0.600001L0.970007 8.13C0.630007 8.43 0.840006 9 1.30001 9H3.00001V12H2.00001C1.45001 12 1.00001 12.45 1.00001 13C1.00001 13.55 1.45001 14 2.00001 14H3.00001V16C3.00001 16.55 3.45001 17 4.00001 17C4.55001 17 5.00001 16.55 5.00001 16V14H9.00001V16C9.00001 16.55 9.45001 17 10 17C10.55 17 11 16.55 11 16V14H15V16C15 16.55 15.45 17 16 17C16.55 17 17 16.55 17 16V14H18C18.55 14 19 13.55 19 13C19 12.45 18.55 12 18 12H17V9ZM5.00001 12V7.19L9.00001 3.59V12H5.00001ZM11 12V3.59L15 7.19V12H11Z" fill="#AAADC3"/>
</svg>
