<svg width="18" height="14" viewBox="0 0 18 14" fill="none" xmlns="http://www.w3.org/2000/svg">
<path d="M16.9183 2.14434H1.08117C0.480518 2.14434 0 1.66782 0 1.07217C0 0.476521 0.480518 0 1.08117 0H16.9183C17.5189 0 17.9994 0.476521 17.9994 1.07217C18.0194 1.66782 17.5189 2.14434 16.9183 2.14434Z" fill="#F44E65"/>
<path d="M8.74944 7.74344H1.08117C0.480518 7.74344 0 7.26692 0 6.67127C0 6.07562 0.480518 5.5991 1.08117 5.5991H8.74944C9.35009 5.5991 9.83061 6.07562 9.83061 6.67127C9.85063 7.24706 9.37011 7.74344 8.74944 7.74344Z" fill="#F44E65"/>
<path d="M12.7538 13.263H1.08117C0.480518 13.263 0 12.7865 0 12.1908C0 11.5952 0.480518 11.1186 1.08117 11.1186H12.7337C13.3344 11.1186 13.8149 11.5952 13.8149 12.1908C13.8349 12.7865 13.3544 13.263 12.7538 13.263Z" fill="#F44E65"/>
</svg>
