<svg width="18" height="18" viewBox="0 0 18 18" fill="none" xmlns="http://www.w3.org/2000/svg">
<path d="M17.6706 16.0879L14.2184 12.6352C14.1896 12.6064 14.1544 12.5808 14.1224 12.5552C15.1087 11.242 15.6915 9.61174 15.6915 7.84697C15.6915 3.51352 12.1785 0 7.84575 0C3.51298 0 0 3.51352 0 7.84697C0 12.1804 3.51298 15.6939 7.84575 15.6939C9.61345 15.6939 11.2434 15.111 12.5532 14.1246C12.5788 14.1566 12.6012 14.1918 12.6333 14.2206L16.0854 17.6733C16.3032 17.8911 16.5914 18 16.8796 18C17.1678 18 17.4528 17.8911 17.6738 17.6733C18.1093 17.2377 18.1093 16.5267 17.6706 16.0879ZM7.84575 13.452C4.75549 13.452 2.24164 10.9377 2.24164 7.84697C2.24164 4.75623 4.75549 2.24199 7.84575 2.24199C10.936 2.24199 13.4499 4.75623 13.4499 7.84697C13.4499 10.9377 10.936 13.452 7.84575 13.452Z" fill="white"/>
</svg>
