<svg xmlns="http://www.w3.org/2000/svg" width="264.654" height="70.981" viewBox="0 0 264.654 70.981">
  <g id="shepard-realtors-logo" transform="translate(-3259 -346)">
    <path id="Vector-1" d="M96.473,32.95a5.856,5.856,0,0,0-1.092,1.393,12.522,12.522,0,0,1-2.541,3.465c-1.159,1.393-2.377,2.736-3.587,4.085a3.393,3.393,0,0,1-.833.691c-.925.52-1.655.1-1.58-.958a16.385,16.385,0,0,1,.5-2.254c-.338.146-.6.233-.838.362a30.228,30.228,0,0,1-7.744,3.139c-1.423.311-2.106-.182-2.06-1.624.024-.742.213-1.478.287-2.222.043-.438.007-.885.007-1.593-.5.358-.853.586-1.176.854a33.51,33.51,0,0,1-7.1,4.6,1.7,1.7,0,0,1-1.486,0,1.985,1.985,0,0,1-.338-1.532c.13-.936.461-1.843.681-2.77a2.312,2.312,0,0,0-.094-.693,6.877,6.877,0,0,0-.575.44c-1.234,1.2-2.457,2.422-3.7,3.618a4.151,4.151,0,0,1-1,.768c-.841.413-1.43.007-1.244-.912a12.454,12.454,0,0,1,.809-2.079c.131-.323.261-.644.457-1.126a24.677,24.677,0,0,0-3.186.187c-2.621.5-5.21,1.153-7.831,1.644-2.28.428-4.208,1.7-6.326,2.5-1.481.559-2.213,1.885-2.983,3.047-1.848,2.784-3.5,5.7-5.21,8.574-.493.829-.879,1.722-1.382,2.543-.159.263-.541.387-.821.574-.07-.343-.3-.761-.186-1.016.729-1.586,1.474-3.171,2.333-4.691,2.271-4.017,4.606-8,6.906-12a10.351,10.351,0,0,0,.457-1.1c-.418.092-.686.139-.947.212-2.973.824-5.918,1.794-8.933,2.427a15.512,15.512,0,0,1-5.019.046c-.749-.092-1.4-.946-2.1-1.454.027-.1.056-.209.082-.314-.251.182-.5.37-.754.549-1.394.987-2.681,2.184-4.452,2.463-1.229.194-1.606-.219-1.693-1.442-.1-1.459.589-2.687.959-4.01.126-.45.268-.895.473-1.573a5.628,5.628,0,0,0-1.089.289,24.29,24.29,0,0,0-7.884,6.677c-.056.073-.1.168-.171.209-.263.143-.536.27-.8.4,0-.331-.1-.727.036-.985.862-1.59,1.807-3.137,2.679-4.722,2.034-3.7,4.027-7.419,6.06-11.118,1.353-2.458,2.749-4.893,4.118-7.341a1.314,1.314,0,0,0,.186-.9c-.44.581-.865,1.172-1.319,1.741-3.029,3.8-5.986,7.66-9.121,11.368-1.969,2.33-4.2,4.435-6.333,6.624a1.346,1.346,0,0,0-.391,1.746A1.85,1.85,0,0,1,6.8,42a12.967,12.967,0,0,1-2.952,1.43.99.99,0,0,1-.906-.372,1.375,1.375,0,0,1,.029-1.155A22.951,22.951,0,0,1,4.58,40.069a6.685,6.685,0,0,0,.5-.756c-.043-.075-.089-.151-.133-.224-.7.087-1.4.18-2.106.26a11.556,11.556,0,0,1-1.705.136c-.278-.01-.758-.231-.775-.4a1.276,1.276,0,0,1,.309-1.029C1.815,37.3,3.01,36.6,4.223,35.945a6.377,6.377,0,0,1,1.7-.576,1.212,1.212,0,0,1,.882.207.739.739,0,0,1,.089.717,1.3,1.3,0,0,1-.838.3,6.814,6.814,0,0,0-3.7,1.491,17.239,17.239,0,0,0,3.589.1A4.329,4.329,0,0,0,7.8,36.811,135.3,135.3,0,0,0,26.412,13.832c2.638-4.11,5.5-8.076,8.278-12.1.229-.333.478-.978,1-.5.193.175.142.866-.041,1.177C33.465,6.1,31.192,9.729,29.032,13.426c-3.1,5.311-6.152,10.656-9.188,16.008-1.457,2.573-2.829,5.194-4.232,7.8-.162.3-.29.622-.432.936l.186.168c.35-.238.693-.489,1.056-.71,1.459-.89,2.9-1.819,4.4-2.633.9-.486,1.655.078,1.529,1.109A12.142,12.142,0,0,1,21.8,38c-.275.924-.592,1.838-.8,2.777a1.233,1.233,0,0,0,.256.975.943.943,0,0,0,.884.036c2.275-1.223,4.5-2.5,6.068-4.686a12.463,12.463,0,0,1,2.319-2.252,2.163,2.163,0,0,1,1.343-.389c.386.012.976.226,1.1.513a1.436,1.436,0,0,1-.172,1.311A13.713,13.713,0,0,1,30.1,38.015c-.739.362-1.761.345-1.742,1.5.022,1.221,1.089,1.213,1.858,1.264a11.178,11.178,0,0,0,3.309-.209c2.824-.683,5.614-1.51,8.416-2.283a8.352,8.352,0,0,1,1.464-.428c1.379-.112,1.961-1.07,2.524-2.145.6-1.148,1.263-2.264,1.964-3.353.191-.3.609-.445.92-.661,0,.411.138.9-.039,1.218-1.312,2.339-2.689,4.642-4.036,6.959-.2.345-.353.717-.529,1.077l.217.185A22.277,22.277,0,0,1,46.349,39.6c1.686-1.089,3.413-2.116,5.123-3.166a.349.349,0,0,1,.162-.075c.541.044,1.309-.1,1.572.194.5.562-.087,1.087-.531,1.513a2.737,2.737,0,0,0-.732.973,14.349,14.349,0,0,0,1.621-.253A35.668,35.668,0,0,1,62.738,37.5a2.218,2.218,0,0,0,1.184-.528c1.123-.858,2.143-1.923,3.785-1.218.205.088.57-.231.874-.323s.722-.275.87-.151a1.012,1.012,0,0,1,.2.89c-.215.683-.577,1.318-.826,1.994-.384,1.038-.734,2.091-1.065,3.149-.063.2-.022.605.072.642a.915.915,0,0,0,.729-.051c2.36-1.554,4.713-3.12,7.034-4.727a1.7,1.7,0,0,0,.534-1c.314-1.513,1.515-2.271,2.587-3.125a.971.971,0,0,1,.937-.012,1.165,1.165,0,0,1,.121,1.041c-.4.7-.971,1.3-1.428,1.967a2.271,2.271,0,0,0-.377.965c-.116.944-.162,1.894-.246,2.84-.017.18-.092.353-.118.532-.227,1.493.077,1.77,1.524,1.386,3.312-.88,6.266-2.585,9.283-4.134.556-.285.925-.939,1.379-1.423.413-.442.8-.914,1.244-1.32a2.5,2.5,0,0,1,2.638-.72.927.927,0,0,0,.775-.328,139.732,139.732,0,0,0,10.793-17.2A87.39,87.39,0,0,1,115.213,1.7,9.472,9.472,0,0,1,116.606.577l.4.233a6.846,6.846,0,0,1-.536,2.1c-3.78,5.848-7.532,11.718-11.469,17.459a112.938,112.938,0,0,0-9.51,17.683c-1.867,4.139-3.6,8.338-5.406,12.5a4.967,4.967,0,0,1-.775,1.32c-.188.214-.594.233-.9.338a2.575,2.575,0,0,1,.043-.912c1.015-2.24,2.087-4.452,3.1-6.692,1.65-3.638,3.271-7.29,4.9-10.938a5.064,5.064,0,0,0,.193-.635C96.579,33.006,96.526,32.976,96.473,32.95Zm-8.539,8.82c.452-.43.732-.652.959-.922,1.316-1.568,2.635-3.137,3.913-4.735a2.6,2.6,0,0,0,.251-.951c-.326.071-.729.041-.969.226a15.553,15.553,0,0,0-4.143,5.5C87.864,41.052,87.934,41.293,87.934,41.769Zm-25.592-.79c.191.015.273.046.3.022,1.312-1.243,2.628-2.483,3.916-3.75.118-.117.06-.416.087-.632-.222.027-.5-.024-.659.092A11.163,11.163,0,0,0,62.342,40.979ZM4.387,41.9c1.273-.063,2.118-.9,1.952-2C5.74,40.5,5.143,41.118,4.387,41.9Z" transform="translate(3406.649 349.423)" fill="#210b2c"/>
    <path id="Vector" d="M90.192,23.041c-.655.812-1.3,1.634-1.966,2.434-4.766,5.7-9.1,11.782-14.464,16.954a36.481,36.481,0,0,1-4.78,3.686,2.526,2.526,0,0,1-3.06.068c-.954-.727-.925-1.829-.722-2.915a2.152,2.152,0,0,0-.019-1.077c-.188.151-.389.289-.568.455-1.128,1.05-2.227,2.135-3.394,3.142a1.387,1.387,0,0,1-1.162.311c-.543-.236-.258-.744-.068-1.17s.321-.868.577-1.578c-1.077.537-1.913.91-2.708,1.352a88.245,88.245,0,0,0-11.5,7.49,8.713,8.713,0,0,0-1.657,1.77c-2.645,3.674-5.179,7.429-7.9,11.045a24.124,24.124,0,0,1-6.338,5.751A3.92,3.92,0,0,1,29,71a4.211,4.211,0,0,1-.2-1.593c.72-2.429,2.336-4.338,3.894-6.24A63.757,63.757,0,0,1,43.469,52.98a11.08,11.08,0,0,0,2.389-2.787c1.331-2.043,2.543-4.166,3.768-6.276a4.909,4.909,0,0,0,.336-1.23c-.075-.088-.147-.177-.222-.265-1.172.4-2.345.79-3.512,1.2a9.859,9.859,0,0,1-1.341.52,3.26,3.26,0,0,1-1.065-.16c.075-.331.051-.751.244-.98,1-1.177,2.051-2.3,3.077-3.451.174-.195.314-.418.471-.627l-.171-.231a14.829,14.829,0,0,0-1.829,1.252c-1.087,1-2.121,2.055-3.131,3.132a5.508,5.508,0,0,0-.56,1.092c-.157.275-.365.52-.548.781-.176-.28-.372-.547-.519-.839a2.839,2.839,0,0,1-.118-.649c-.766.321-1.457.652-2.174.9-1.133.4-2.273.8-3.432,1.1-1.355.353-1.783.085-2.746-1.5-1.116.924-2.213,1.855-3.336,2.753A40.207,40.207,0,0,1,21.1,52.177a9.684,9.684,0,0,1-3.795.926,2.568,2.568,0,0,1-2.442-2.509,18.744,18.744,0,0,1,.147-5.2,44.184,44.184,0,0,1,1.565-5.248,6.075,6.075,0,0,0,.1-.819C15.5,40.187,14.507,41,13.43,41.667c-2.577,1.6-5.157,3.2-7.812,4.669a5.059,5.059,0,0,1-3.759.481A2.337,2.337,0,0,1,.046,44.031a7.941,7.941,0,0,1,2.889-4.559,1.693,1.693,0,0,1,1.539-.163c.546.292.57.96.285,1.607a4.477,4.477,0,0,1-2.792,2.629c-.377.124-.9.608-.891.907A1.856,1.856,0,0,0,1.8,45.741c1.031.691,2.111.192,3.1-.2,3.58-1.437,6.64-3.745,9.773-5.943a15.936,15.936,0,0,0,5.213-6.539,101.256,101.256,0,0,1,10.674-17.4A59.424,59.424,0,0,1,41.395,4.891a4.3,4.3,0,0,1,1.459-.875,2.4,2.4,0,0,1,1.756.058A1.809,1.809,0,0,1,44.892,5.7a26.524,26.524,0,0,1-1.71,3.968,59.179,59.179,0,0,1-7.758,10.678c-3.5,4.044-7.167,7.944-10.846,11.825-1.659,1.751-3.638,3.2-5.254,4.992a10.882,10.882,0,0,0-1.932,3.609,54.512,54.512,0,0,0-1.78,6.138,6.818,6.818,0,0,0-.027,2.882c.5,2.339,1.63,3.173,4.051,1.931a45.224,45.224,0,0,0,6.218-3.811c2.517-1.863,4.867-3.956,7.256-5.989.372-.316.541-.861.872-1.24a3.2,3.2,0,0,1,.8-.5c.053.328.225.7.133.977-.271.822-.717,1.588-.957,2.415-.249.861.017,1.14.845.849a68.641,68.641,0,0,0,7.046-2.707c1.229-.593,2.135-1.836,3.263-2.682a32.411,32.411,0,0,1,3.413-2.193,1.16,1.16,0,0,1,1.1.08,1.154,1.154,0,0,1-.014,1.106c-.8,1.094-1.7,2.113-2.56,3.164a2.766,2.766,0,0,0-.626,1.143c.874-.233,1.756-.44,2.618-.71.6-.187,1.324-.411,1.643.18a2.361,2.361,0,0,1,.123,1.863c-.86,1.756-1.9,3.421-2.87,5.121-.169.294-.326.6-.488.892l.2.18q1.174-.784,2.345-1.566a68.954,68.954,0,0,1,11.785-6.609,2.892,2.892,0,0,0,.686-.557c.7-.61,1.365-1.282,2.118-1.821a1.768,1.768,0,0,1,2.558.374c.418.591.611,1.148-.145,1.712a4.352,4.352,0,0,0-.727,3.665,1.091,1.091,0,0,0,1.589.511,14.918,14.918,0,0,0,5.416-4.015q5.3-5.953,10.37-12.119c5.126-6.269,10.143-12.628,15.208-18.945a3.344,3.344,0,0,1,.688-.717,3.224,3.224,0,0,1,.841-.28c.019.338.169.751.029,1a19.039,19.039,0,0,1-1.353,1.928A190.835,190.835,0,0,0,87.813,29.645c-1.971,3.358-3.9,6.743-5.836,10.121a1.331,1.331,0,0,0-.159.871c.234-.139.466-.282.7-.411,1.42-.778,2.817-1.61,4.28-2.293a1.744,1.744,0,0,1,1.449.212,1.006,1.006,0,0,1,.085,1.474c-.5.708-1.053,1.381-1.585,2.067-.164.209-.333.416-.592.734a4.1,4.1,0,0,0,.688.078c3-.248,6-.484,9-.793a1.608,1.608,0,0,0,1.07-.761,8.019,8.019,0,0,1,2.742-3.2,1.655,1.655,0,0,1,1.365-.126,1.121,1.121,0,0,1,.466,1.5,4.121,4.121,0,0,1-2.947,2.925,1.465,1.465,0,0,0-1.234,1.367c-.145,1.469.423,1.914,1.814,1.393a17.6,17.6,0,0,0,6.027-3.922A128.628,128.628,0,0,0,118.384,25.5c1.964-2.6,3.971-5.175,5.942-7.774a2.844,2.844,0,0,0,.285-.79,3.1,3.1,0,0,0-.746-.18c-4.1.041-8.213-.068-12.3.2a75.847,75.847,0,0,0-8.976,1.413,9.143,9.143,0,0,0-1.952,1.07,3.68,3.68,0,0,1-1.012.18c.063-.382,0-.982.21-1.109a12.377,12.377,0,0,1,3.114-1.534,48.62,48.62,0,0,1,11.292-1.089q4.8-.1,9.6-.007a3.778,3.778,0,0,0,3.215-1.627c3.7-4.545,7.444-9.053,11.174-13.571a1.771,1.771,0,0,1,.444-.447,3.5,3.5,0,0,1,.7-.219c.072.272.251.574.188.812a3.953,3.953,0,0,1-.563,1.126q-4.21,6.445-8.432,12.881c-.14.214-.239.455-.5.963,1.319,0,2.415.046,3.5-.034.263-.019.572-.421.729-.72q3.246-6.164,6.45-12.353a1.407,1.407,0,0,1,.207-.4c.278-.255.71-.742.86-.671.585.282.343.8.111,1.245q-3.1,5.887-6.212,11.772c-.59,1.116-.546,1.206.7,1.208,5.727,0,11.457.029,17.184-.017,2.167-.017,4.331-.214,6.5-.323.415-.022.964-.107.9.523-.019.192-.555.46-.872.484a224.257,224.257,0,0,1-23.331.253,2.952,2.952,0,0,0-3.249,2.023c-3.633,7.769-7.362,15.495-11.061,23.232-.408.856-.823,1.712-1.234,2.568.07.058.14.117.213.175.251-.212.514-.413.753-.639,1.206-1.143,2.377-2.325,3.628-3.417.307-.267,1.02-.469,1.264-.3a1.754,1.754,0,0,1,.534,1.313c-.017.99-.273,1.977-.3,2.969-.039,1.352.543,1.748,1.661,1.055,1.556-.965,3.01-2.1,4.513-3.149a15.254,15.254,0,0,1,1.741-1.133c.22-.112.587.063.887.107-.1.258-.116.63-.3.759-2.217,1.559-4.4,3.186-6.72,4.574-1.384.827-2.816-.236-2.794-1.916.012-.839.246-1.671.314-2.512.021-.253-.174-.523-.269-.788a3.2,3.2,0,0,0-.62.416c-2.22,2.4-4.418,4.81-6.65,7.193a2.892,2.892,0,0,1-.962.433,2.894,2.894,0,0,1,.044-1.08q4.8-10.1,9.645-20.185c1.7-3.538,3.413-7.069,5.118-10.6.447-.929.327-1.012-.671-1.133a4.139,4.139,0,0,0-4.645,2.49c-2.087,3.91-4.6,7.6-6.635,11.531a154.332,154.332,0,0,0-9.566,22.092c-.589,1.77-1.183,3.538-1.826,5.289-.1.275-.466.452-.708.674-.07-.34-.287-.737-.188-1.014,1.843-5.065,3.676-10.135,5.606-15.169,2.778-7.251,6.607-13.97,10.549-20.625.831-1.4,1.717-2.77,2.546-4.173a3.064,3.064,0,0,0,.21-.9,2.49,2.49,0,0,0-.988,0,2.674,2.674,0,0,0-.942.8c-3.937,5.089-7.778,10.252-11.81,15.266a59.361,59.361,0,0,1-9.6,10.1,33.885,33.885,0,0,1-4.319,2.6,3.716,3.716,0,0,1-1.386.36c-1.37.146-2.5-.178-2.345-2.193.08-1.051-.123-1.148-1.135-1.051-2.635.255-5.288.377-7.9.764A27.536,27.536,0,0,0,82.634,44.9c-1.138.379-2.232.89-3.362,1.286-.21.073-.512-.112-.773-.18.068-.263.056-.618.222-.768a.676.676,0,0,0,.258-.907,1.6,1.6,0,0,1,.15-1.187q5.428-9.564,10.9-19.1c.147-.258.263-.532.394-.8A2.506,2.506,0,0,0,90.192,23.041ZM20.138,34.492c.085.075.169.151.254.224.915-.81,1.86-1.59,2.742-2.434a156.946,156.946,0,0,0,13.952-15.7,51.256,51.256,0,0,0,6.348-9.768A5.661,5.661,0,0,0,43.9,5.46c.092-.477-.179-.7-.647-.508a4.268,4.268,0,0,0-.684.435A46.2,46.2,0,0,0,31.728,15.7a111.485,111.485,0,0,0-10.08,15.952C21.133,32.6,20.64,33.546,20.138,34.492ZM42.385,55.623l-.261-.231c-.239.165-.49.314-.713.5a51.865,51.865,0,0,0-8.387,8.6c-1.08,1.442-2.041,2.974-3.024,4.486-.114.175-.024.484-.026.732a2.088,2.088,0,0,0,.611-.231,25.272,25.272,0,0,0,3.365-2.867c2.229-2.607,4.319-5.34,6.428-8.051C41.1,57.626,41.721,56.605,42.385,55.623Zm37.382-11.2c2.633-.019,7.314-3.46,7.45-5.476C85.4,38.966,80.468,42.587,79.767,44.425ZM133.541,8.346c-.072-.058-.145-.117-.217-.178a4.756,4.756,0,0,0-.582.528c-1.631,2.052-3.259,4.107-4.86,6.181-.141.182-.092.508-.133.768.275-.01.6.071.811-.049a2.224,2.224,0,0,0,.672-.71c.63-.919,1.239-1.853,1.85-2.784C131.906,10.853,132.722,9.6,133.541,8.346ZM62.448,42.6c.1.1.21.2.314.3.838-.936,2.053-1.505,2.647-2.682-.094-.095-.188-.187-.28-.282Q63.789,41.266,62.448,42.6Z" transform="translate(3259 345.98)" fill="#210b2c"/>
  </g>
</svg>
